HIERARCHY
ROOT Hips
{
	OFFSET 0.000000 0.000000 0.000000
	CHANNELS 6 Xposition Yposition Zposition Xrotation Yrotation Zrotation
	JOINT LeftUpLeg_virtual
	{
		OFFSET 0.000000 0.000000 0.000000
		CHANNELS 3 Xrotation Yrotation Zrotation
		JOINT LeftUpLeg
		{
			OFFSET 10.205400 -3.823500 0.155100
			CHANNELS 3 Xrotation Yrotation Zrotation
			JOINT LeftLeg
			{
				OFFSET 0.708757 -12.982077 0.567790
				CHANNELS 3 Xrotation Yrotation Zrotation
				JOINT LeftFoot
				{
					OFFSET -0.708756 -10.717838 -2.184338
					CHANNELS 3 Xrotation Yrotation Zrotation
					JOINT LeftToeBase
					{
						OFFSET 0.108149 -7.191104 7.560241
						CHANNELS 3 Xrotation Yrotation Zrotation
						JOINT LeftToe_End
						{
							OFFSET 0.070230 0.081724 4.490308
							CHANNELS 3 Xrotation Yrotation Zrotation
							End Site
							{
								OFFSET 0 0 0
							}
						}
					}
				}
			}
		}
	}
	JOINT RightUpLeg_virtual
	{
		OFFSET 0.000000 0.000000 0.000000
		CHANNELS 3 Xrotation Yrotation Zrotation
		JOINT RightUpLeg
		{
			OFFSET -10.205400 -3.823500 0.005500
			CHANNELS 3 Xrotation Yrotation Zrotation
			JOINT RightLeg
			{
				OFFSET -0.708756 -12.982134 0.610632
				CHANNELS 3 Xrotation Yrotation Zrotation
				JOINT RightFoot
				{
					OFFSET 0.708754 -10.717769 -1.945823
					CHANNELS 3 Xrotation Yrotation Zrotation
					JOINT RightToeBase
					{
						OFFSET -0.108140 -7.191069 7.372968
						CHANNELS 3 Xrotation Yrotation Zrotation
						JOINT RightToe_End
						{
							OFFSET -0.070227 0.081735 4.479403
							CHANNELS 3 Xrotation Yrotation Zrotation
							End Site
							{
								OFFSET 0 0 0
							}
						}
					}
				}
			}
		}
	}
	JOINT Spine_virtual
	{
		OFFSET 0.000000 0.000000 0.000000
		CHANNELS 3 Xrotation Yrotation Zrotation
		JOINT Spine
		{
			OFFSET 0.000000 6.876099 0.125700
			CHANNELS 3 Xrotation Yrotation Zrotation
			JOINT Spine1
			{
				OFFSET 0.000000 5.730043 0.104720
				CHANNELS 3 Xrotation Yrotation Zrotation
				JOINT Spine1_split
				{
					OFFSET 0.000000 5.730043 0.104720
					CHANNELS 3 Xrotation Yrotation Zrotation
					JOINT Spine2
					{
						OFFSET 0.000000 5.730043 0.104720
						CHANNELS 3 Xrotation Yrotation Zrotation
						JOINT Neck_virtual
						{
							OFFSET 0.000000 0.000000 0.000000
							CHANNELS 3 Xrotation Yrotation Zrotation
							JOINT Neck
							{
								OFFSET 0.000000 10.314075 0.188496
								CHANNELS 3 Xrotation Yrotation Zrotation
								JOINT Head
								{
									OFFSET 0.000000 7.643700 -2.377400
									CHANNELS 3 Xrotation Yrotation Zrotation
									JOINT HeadTop_End
									{
										OFFSET 0.000000 43.788605 -13.619600
										CHANNELS 3 Xrotation Yrotation Zrotation
										End Site
										{
											OFFSET 0 0 0
										}
									}
								}
							}
						}
						JOINT LeftShoulder_virtual
						{
							OFFSET 0.000000 0.000000 0.000000
							CHANNELS 3 Xrotation Yrotation Zrotation
							JOINT LeftShoulder
							{
								OFFSET 2.196100 4.412489 0.087492
								CHANNELS 3 Xrotation Yrotation Zrotation
								JOINT LeftShoulder_split
								{
									OFFSET 2.196100 4.412489 0.087492
									CHANNELS 3 Xrotation Yrotation Zrotation
									JOINT LeftArm
									{
										OFFSET 8.771219 -2.981674 -0.026999
										CHANNELS 3 Xrotation Yrotation Zrotation
										JOINT LeftForeArm
										{
											OFFSET 8.512804 0.000000 -0.000000
											CHANNELS 3 Xrotation Yrotation Zrotation
											JOINT LeftHand
											{
												OFFSET 18.484802 0.000000 -0.000000
												CHANNELS 3 Xrotation Yrotation Zrotation
												End Site
												{
													OFFSET 0 0 0
												}
											}
										}
									}
								}
							}
						}
						JOINT RightShoulder_virtual
						{
							OFFSET 0.000000 0.000000 0.000000
							CHANNELS 3 Xrotation Yrotation Zrotation
							JOINT RightShoulder
							{
								OFFSET -2.196100 4.412496 0.070690
								CHANNELS 3 Xrotation Yrotation Zrotation
								JOINT RightShoulder_split
								{
									OFFSET -2.196100 4.412496 0.070690
									CHANNELS 3 Xrotation Yrotation Zrotation
									JOINT RightArm
									{
										OFFSET -8.771282 -2.981682 -0.094208
										CHANNELS 3 Xrotation Yrotation Zrotation
										JOINT RightForeArm
										{
											OFFSET -8.494598 0.000000 0.000000
											CHANNELS 3 Xrotation Yrotation Zrotation
											JOINT RightHand
											{
												OFFSET -18.483803 0.000000 0.000001
												CHANNELS 3 Xrotation Yrotation Zrotation
												End Site
												{
													OFFSET 0 0 0
												}
											}
										}
									}
								}
							}
						}
					}
				}
			}
		}
	}
}
MOTION
Frames: 7
Frame Time: 0.03333333
-0.141142 26.953730 -2.799114 0.000000 0.000000 0.000000 -2.401057 -41.505646 3.260236 -31.235807 8.115692 19.297187 59.428841 -9.059185 4.261247 -26.122446 6.080904 -23.589354 2.363873 -0.496686 -5.309983 0.000000 0.000000 0.000000 -2.647541 -39.499155 3.506828 -21.825432 -12.178602 -33.245669 62.049530 13.549295 -6.901555 -41.017919 -29.357273 32.361259 10.187346 13.773754 -21.260690 0.000000 0.000000 0.000000 -4.208185 -37.452707 1.575658 5.234644 4.525352 -0.540904 1.347877 -0.856564 -0.028115 0.022391 -0.194884 -0.001904 0.000000 0.000000 0.000000 3.626789 1.683209 1.415678 9.440450 16.620686 -8.157543 -10.410088 12.894798 -25.300281 0.000000 0.000000 0.000000 3.670628 -0.350645 -0.042482 2.349388 4.001935 -4.704797 1.255702 -6.120215 0.917103 -65.639573 10.308787 -48.631657 114.152562 -78.574626 109.210504 0.000000 0.000000 0.000000 3.579816 -0.059260 1.383944 -3.548168 7.246308 -8.227969 -0.546617 -3.584716 2.128187 -53.857401 29.721138 96.470575 -134.113251 75.692354 131.452769 0.000000 0.000000 0.000000 
-0.135656 26.846777 -2.746058 0.000000 0.000000 0.000000 -2.933985 -42.225876 3.196879 -31.514971 7.372813 18.735750 59.668765 -7.505629 3.560023 -26.256290 7.022389 -22.298817 2.943909 -0.417127 -6.519851 0.000000 0.000000 0.000000 -2.751899 -39.595669 3.638338 -22.320191 -12.222117 -33.517811 63.413928 13.782801 -7.150155 -41.497245 -29.157142 32.820398 11.213705 13.655659 -21.384841 0.000000 0.000000 0.000000 -4.911458 -37.577501 1.382121 5.521695 4.547883 -0.625365 1.308217 -0.732411 0.061011 0.034178 -0.292132 -0.001311 0.000000 0.000000 0.000000 3.734268 1.731707 1.455827 9.707478 16.689934 -8.214353 -9.874273 12.697202 -25.738547 0.000000 0.000000 0.000000 3.606200 -0.243036 -0.009369 2.224959 3.761547 -4.988928 1.535265 -6.456698 1.684973 -65.613338 10.429866 -48.601000 116.534570 -78.390955 111.491773 0.000000 0.000000 0.000000 3.589643 0.008536 1.414535 -3.546174 7.392726 -8.195159 -0.066509 -3.916256 2.108866 -54.256038 29.480630 95.691176 -133.857515 75.836956 131.292656 0.000000 0.000000 0.000000 
-0.103511 26.604988 -2.654846 0.000000 0.000000 0.000000 -3.448456 -42.448977 2.824089 -33.303009 5.767462 19.083550 61.512342 -6.551513 2.948168 -24.082433 6.981719 -22.722059 3.765042 -0.489467 -7.865990 0.000000 0.000000 0.000000 -2.918596 -39.385015 3.367596 -22.811457 -12.195821 -33.593862 64.820551 14.279503 -7.758635 -40.863290 -28.886847 34.617117 11.162401 13.633414 -21.959325 0.000000 0.000000 0.000000 -5.664610 -37.785897 0.883215 5.748008 4.605348 -0.385468 1.323379 -0.553171 0.166228 0.034855 -0.311802 0.007211 0.000000 0.000000 0.000000 4.000360 1.860460 1.478696 9.870357 16.689731 -8.136357 -8.926051 12.899091 -26.274631 0.000000 0.000000 0.000000 3.629059 -0.068367 0.105219 1.973738 3.461385 -5.327401 1.992265 -6.703081 2.408816 -65.274841 10.962930 -48.643111 118.993780 -78.432947 113.807296 0.000000 0.000000 0.000000 3.673620 0.090809 1.463524 -3.529062 7.307414 -8.001901 -0.191866 -3.477332 1.966667 -53.587642 28.615252 93.258303 -135.740038 75.518410 133.055377 0.000000 0.000000 0.000000 
-0.015109 26.289351 -2.571857 0.000000 0.000000 0.000000 -3.860435 -42.341893 2.205813 -36.236223 3.176739 20.252119 64.503221 -6.980220 2.817425 -19.161761 5.237617 -25.520578 1.099524 -0.512055 -7.849066 0.000000 0.000000 0.000000 -3.162279 -39.235096 2.745954 -23.172993 -12.239428 -33.464966 65.778144 14.854231 -8.661023 -40.324211 -28.542777 36.200860 10.747992 13.584896 -22.817222 0.000000 0.000000 0.000000 -6.387707 -38.191802 0.186270 5.921624 4.678875 0.108659 1.421286 -0.324104 0.253080 0.042420 -0.254854 0.026063 0.000000 0.000000 0.000000 4.423451 2.029626 1.466620 9.810367 16.629318 -7.722522 -7.808249 13.327124 -26.769554 0.000000 0.000000 0.000000 3.762044 0.134716 0.273727 1.615265 3.183807 -5.606573 2.555313 -6.879115 2.857417 -64.567937 11.911308 -48.806688 122.127197 -78.524690 116.780225 0.000000 0.000000 0.000000 3.842919 0.177321 1.500129 -3.478296 7.085970 -7.764660 -1.023071 -2.329093 1.937241 -51.838049 27.327614 89.808224 -139.363071 74.772471 136.387471 0.000000 0.000000 0.000000 
0.125459 25.941481 -2.489737 0.000000 0.000000 0.000000 -4.302375 -42.262502 1.491466 -38.901387 0.291468 21.500443 67.596627 -8.057799 3.023762 -14.061223 2.033317 -28.061453 -6.049226 -0.610348 -6.332254 0.000000 0.000000 0.000000 -3.593290 -39.347654 1.950186 -23.686355 -12.365978 -33.404307 66.553930 15.322710 -9.647321 -40.342908 -28.113909 36.719182 11.338306 13.304134 -23.931796 0.000000 0.000000 0.000000 -7.023908 -38.598809 -0.448719 6.141823 4.721833 0.689833 1.616528 -0.102230 0.271617 0.029525 -0.156550 0.072828 0.000000 0.000000 0.000000 4.931868 2.194745 1.403455 9.399349 16.503482 -6.832698 -6.840929 14.014559 -27.036582 0.000000 0.000000 0.000000 4.005797 0.315151 0.444611 1.212212 2.925918 -5.739237 3.312362 -6.943431 3.178846 -63.596923 13.249924 -49.119223 126.531426 -78.380901 121.016035 0.000000 0.000000 0.000000 4.077762 0.258849 1.476244 -3.429596 6.926226 -7.602697 -2.034809 -0.701612 1.856077 -49.590175 25.745485 86.070048 -144.004471 73.585221 140.637898 0.000000 0.000000 0.000000 
0.277055 25.614918 -2.386076 0.000000 0.000000 0.000000 -4.858945 -42.393734 0.818478 -41.074876 -2.093206 22.704018 70.731349 -9.019232 3.275915 -10.666629 -1.227110 -29.330728 -13.165687 -0.889268 -5.486590 0.000000 0.000000 0.000000 -4.213920 -39.801418 1.201203 -24.880967 -12.475393 -33.789199 67.607733 15.707126 -10.551163 -39.936782 -27.512986 37.011730 12.431763 12.896266 -25.350039 0.000000 0.000000 0.000000 -7.445585 -39.078818 -0.820762 6.468245 4.677507 1.167726 1.920572 0.049082 0.204720 0.023778 -0.067424 0.079757 0.000000 0.000000 0.000000 5.429619 2.309490 1.290987 8.567540 16.281935 -5.394755 -6.315903 15.112197 -26.963574 0.000000 0.000000 0.000000 4.308539 0.432288 0.561042 0.831990 2.664337 -5.693955 4.003212 -7.004651 3.464744 -62.573057 14.860849 -49.566843 131.891144 -77.719712 126.214096 0.000000 0.000000 0.000000 4.340379 0.299369 1.388264 -3.441997 6.969330 -7.560257 -2.929347 0.957904 1.760348 -47.448778 24.280539 82.880992 -148.687576 72.160914 144.891576 0.000000 0.000000 0.000000 
0.386487 25.315229 -2.231012 0.000000 0.000000 0.000000 -5.268114 -42.946385 0.338159 -42.697220 -3.612931 23.871147 73.792196 -9.545108 3.474457 -9.506602 -3.389631 -29.751973 -16.904100 -1.096056 -6.028610 0.000000 0.000000 0.000000 -4.745603 -40.585715 0.724034 -26.841959 -12.248224 -34.808263 68.874330 16.382613 -11.452450 -38.126778 -26.726044 38.899823 12.248913 12.734476 -27.220433 0.000000 0.000000 0.000000 -7.720654 -39.752459 -1.010026 6.890012 4.460861 1.444573 2.236344 0.064102 0.082492 0.051973 0.016206 0.069856 0.000000 0.000000 0.000000 5.856123 2.325499 1.148881 7.352580 15.986305 -3.506001 -6.270787 16.651395 -26.567856 0.000000 0.000000 0.000000 4.607246 0.453165 0.603772 0.542828 2.378651 -5.474950 4.589840 -7.138959 3.618290 -61.735601 16.705304 -50.002401 136.539962 -76.535166 130.743645 0.000000 0.000000 0.000000 4.583066 0.266807 1.245097 -3.536030 7.277503 -7.638592 -3.452138 1.972629 1.660602 -45.953468 23.234908 80.589914 -152.807287 70.748554 148.640435 0.000000 0.000000 0.000000 
